<svg version="1.1" xmlns="http://www.w3.org/2000/svg" xmlns:xlink="http://www.w3.org/1999/xlink" width="960.000000pt" height="980.000000pt" viewBox="0,0,250.76563,256"><g fill="#ffffff" fill-rule="nonzero" stroke="none" stroke-width="1" stroke-linecap="butt" stroke-linejoin="miter" stroke-miterlimit="10" stroke-dasharray="" stroke-dashoffset="0" font-family="none" font-weight="none" font-size="none" text-anchor="none" style="mix-blend-mode: normal"><g transform="translate(-0.02029,0.01563) scale(0.26122,0.26122)"><g transform="translate(0,980) scale(0.1,-0.1)"><path d="M8869,9791c-123,-40 -281,-179 -391,-346c-74,-113 -1718,-2958 -1718,-2974c0,-10 772,-925 790,-936c5,-3 17,7 28,22c51,72 1900,3287 1928,3353c106,244 119,478 31,557c-12,11 -141,89 -287,173c-277,160 -311,173 -381,151z"></path><path d="M3710,9234c-152,-19 -321,-69 -455,-137c-122,-60 -2581,-1483 -2655,-1536c-93,-66 -232,-202 -306,-301c-35,-47 -93,-143 -129,-215c-113,-229 -159,-435 -159,-715c-1,-343 82,-669 261,-1025c76,-152 2429,-4225 2516,-4355c285,-430 659,-737 1055,-869c352,-117 722,-104 1042,38c96,42 2522,1438 2671,1537c254,168 445,420 544,717c98,295 110,605 39,957c-42,204 -142,479 -240,660c-112,206 -628,1090 -635,1088c-4,-2 -96,-97 -205,-211c-186,-196 -198,-207 -218,-194c-11,7 -238,139 -504,292c-272,157 -482,283 -480,290c2,7 149,266 328,576c179,309 324,566 323,570c-8,24 -1054,1826 -1102,1898c-332,493 -762,810 -1236,911c-97,21 -366,35 -455,24zM4613,7810c91,-157 164,-286 164,-286c-1,-1 -776,-448 -1722,-994c-946,-546 -1734,-1001 -1751,-1011l-31,-19l-162,281c-89,154 -161,285 -159,290c2,6 381,228 843,495c462,267 1009,583 1215,702c206,119 614,354 905,523c292,168 531,306 532,305c1,-1 76,-129 166,-286zM5199,6619c89,-155 159,-285 154,-289c-19,-18 -3397,-1963 -3410,-1964c-16,-1 -336,541 -330,558c3,10 243,149 2152,1251c523,301 1018,588 1100,636c83,48 155,88 160,88c6,1 84,-126 174,-280zM5039,4999c89,-155 159,-285 154,-289c-14,-13 -2595,-1501 -2598,-1498c-8,9 -325,561 -325,567c1,7 2581,1499 2595,1500c6,1 84,-126 174,-280zM6210,4670c272,-153 495,-282 494,-287c-1,-12 -1064,-687 -1070,-680c-4,3 10,279 30,614c20,334 36,614 36,621c0,6 3,12 8,12c4,0 230,-126 502,-280zM5095,3513c88,-152 161,-282 162,-287c2,-10 -1960,-1148 -1990,-1154c-9,-2 -72,99 -175,277c-89,155 -162,282 -162,285c0,2 75,47 168,99c92,53 541,312 997,576c457,264 832,480 835,480c3,1 77,-124 165,-276z"></path></g></g></g></svg>