<svg version="1.1" xmlns="http://www.w3.org/2000/svg" xmlns:xlink="http://www.w3.org/1999/xlink" width="981.000000pt" height="980.000000pt" viewBox="0,0,256,255.73438"><g fill="#fffefe" fill-rule="nonzero" stroke="none" stroke-width="1" stroke-linecap="butt" stroke-linejoin="miter" stroke-miterlimit="10" stroke-dasharray="" stroke-dashoffset="0" font-family="none" font-weight="none" font-size="none" text-anchor="none" style="mix-blend-mode: normal"><g transform="translate(0.09162,0.0603) scale(0.26096,0.26096)"><g transform="translate(0,980) scale(0.1,-0.1)"><path d="M4555,9789c-452,-30 -933,-135 -1372,-300c-943,-352 -1779,-1011 -2342,-1844c-455,-672 -726,-1425 -818,-2265c-22,-203 -24,-716 -5,-915c64,-647 225,-1203 512,-1770c474,-939 1217,-1685 2155,-2165c525,-268 1098,-437 1725,-507c217,-24 752,-24 970,0c716,80 1357,284 1940,618c153,87 189,116 229,177c127,198 28,459 -199,526c-111,33 -179,17 -362,-87c-508,-289 -1044,-463 -1646,-534c-206,-24 -690,-24 -892,0c-1006,121 -1875,546 -2560,1253c-656,677 -1046,1504 -1167,2474c-24,193 -24,690 0,892c100,846 397,1559 922,2213c99,123 346,378 480,495c529,460 1133,775 1795,934c336,81 599,111 980,110c305,0 440,-11 705,-55c1428,-239 2642,-1218 3190,-2574c333,-823 393,-1726 175,-2598c-99,-395 -261,-782 -476,-1137c-122,-201 -139,-296 -80,-427c57,-123 163,-194 300,-201c149,-7 247,53 349,216c383,609 632,1340 712,2092c22,210 30,592 16,800c-35,519 -141,995 -326,1470c-366,939 -1039,1768 -1886,2323c-878,576 -1962,857 -3024,786z"></path><path d="M4467,7029c-70,-8 -178,-39 -232,-66c-66,-34 -1383,-798 -1423,-825c-102,-70 -202,-196 -254,-319c-48,-116 -62,-190 -62,-344c1,-194 38,-345 133,-535c53,-106 1291,-2247 1358,-2348c112,-169 294,-333 457,-412c128,-62 221,-84 356,-84c203,-1 235,12 760,316c223,129 531,307 685,396c154,89 306,182 337,206c311,246 375,712 158,1159c-22,45 -43,88 -48,95c-7,11 -42,-5 -153,-69c-79,-45 -147,-85 -152,-89c-4,-3 13,-49 37,-101c59,-124 89,-241 89,-349c1,-186 -59,-309 -193,-395c-137,-88 -1328,-770 -1384,-793c-52,-21 -71,-24 -150,-20c-104,6 -176,29 -262,87c-71,48 -163,138 -224,221c-47,65 -1289,2207 -1355,2338c-118,236 -130,482 -29,643c12,19 44,55 72,80c61,54 1356,804 1445,837c78,28 192,26 282,-7c124,-44 282,-180 374,-323l43,-66l149,86c82,48 149,91 149,97c0,23 -121,186 -202,271c-176,183 -376,289 -597,314c-47,5 -88,9 -91,9c-3,-1 -35,-5 -73,-10z"></path><path d="M5917,6500c-230,-40 -418,-179 -499,-370c-23,-55 -23,-58 -26,-535c-3,-423 -1,-489 14,-553c31,-134 -5,-264 -158,-575c-162,-328 -176,-399 -79,-428l38,-11l529,353l529,354l540,6c603,6 584,4 745,81c155,74 277,223 309,376c7,34 11,192 10,435c0,428 -5,464 -69,571c-52,86 -153,177 -252,225c-160,79 -120,75 -893,77c-379,1 -711,-2 -738,-6zM6295,5866c177,-82 209,-321 58,-445c-202,-166 -505,43 -418,288c53,150 219,223 360,157zM7247,5877c108,-40 177,-139 176,-251c-1,-75 -22,-129 -71,-179c-60,-62 -105,-82 -192,-82c-89,0 -135,21 -197,87c-48,53 -67,104 -67,180c1,143 117,256 264,256c30,0 69,-5 87,-11z"></path><path d="M3987,5631c-378,-218 -695,-404 -703,-413c-25,-24 -20,-101 10,-163c33,-67 105,-135 143,-135c18,0 138,64 333,176c1141,659 1098,633 1105,665c21,95 -92,270 -174,269c-15,-1 -304,-162 -714,-399z"></path><path d="M4425,4597c-221,-128 -414,-240 -429,-250c-25,-17 -27,-23 -22,-55c14,-81 104,-224 157,-253c17,-9 85,27 432,227c227,130 420,244 430,253c25,21 18,65 -24,150c-30,60 -115,161 -135,161c-5,-1 -189,-105 -409,-233z"></path><path d="M5900,4071c-134,-72 -1376,-795 -1382,-804c-4,-7 -8,-34 -8,-61c0,-99 101,-236 175,-236c8,0 73,33 143,74c191,110 1095,633 1187,685c44,25 86,58 94,72c31,55 -26,196 -100,252c-49,36 -70,39 -109,18z"></path></g></g></g></svg>