<svg version="1.1" xmlns="http://www.w3.org/2000/svg" xmlns:xlink="http://www.w3.org/1999/xlink" width="500.000000pt" height="500.000000pt" viewBox="0,0,256,256"><g fill="#ffffff" fill-rule="nonzero" stroke="none" stroke-width="1" stroke-linecap="butt" stroke-linejoin="miter" stroke-miterlimit="10" stroke-dasharray="" stroke-dashoffset="0" font-family="none" font-weight="none" font-size="none" text-anchor="none" style="mix-blend-mode: normal"><g transform="translate(-0.00051,-1.024) scale(0.512,0.512)"><g transform="translate(0,500) scale(0.1,-0.1)"><path d="M1654,4179c-40,-42 -155,-95 -235,-109c-57,-10 -82,-9 -183,9l-116,21l-59,-62c-73,-78 -144,-121 -239,-146c-41,-11 -79,-25 -84,-30c-7,-7 1,-29 25,-69c47,-77 73,-168 93,-321c9,-70 21,-131 25,-137c5,-5 84,-17 177,-26c231,-24 1040,-26 1277,-4c224,22 205,14 205,84c0,139 47,311 114,416c24,37 32,57 24,59c-7,2 -42,11 -78,21c-99,25 -173,70 -246,147l-65,70l-47,-11c-106,-24 -184,-32 -235,-22c-83,15 -162,49 -227,97c-33,24 -68,44 -78,44c-10,0 -31,-14 -48,-31zM1741,3990c24,-11 60,-20 78,-20c24,0 44,-8 63,-27c32,-30 35,-45 13,-63c-21,-18 -19,-56 10,-141c38,-110 31,-137 -56,-220c-38,-36 -86,-75 -108,-87l-39,-22l-49,36c-26,20 -74,61 -105,92c-75,73 -80,96 -39,202c36,96 38,113 11,150l-20,28l25,26c18,19 34,26 62,26c21,0 54,9 73,19c19,11 36,20 36,20c1,1 21,-8 45,-19z"></path><path d="M2953,3715c-18,-8 -44,-25 -58,-39c-23,-23 -25,-33 -25,-108c0,-97 7,-111 78,-157l49,-31h486h486l37,32c100,88 98,224 -5,289l-45,29h-485c-396,-1 -492,-3 -518,-15zM3338,3552l3,-52l-166,2l-166,3l-16,27c-15,24 -15,28 1,52l17,26l162,-2l162,-3zM3947,3584c15,-24 15,-29 2,-53l-15,-26h-129h-130l-3,39c-6,66 -6,66 132,66c124,0 126,0 143,-26z"></path><path d="M2684,3281c-10,-10 -3,-70 10,-80c11,-10 21,-9 45,3c26,14 116,16 738,16c686,0 709,-1 740,-20c18,-11 35,-30 37,-42c26,-122 59,-356 51,-368c-4,-7 -271,-10 -769,-10h-763l-24,-52c-13,-29 -43,-81 -66,-116c-24,-34 -43,-64 -43,-66c0,-2 11,-7 25,-10c36,-9 105,-75 122,-115c41,-97 -88,-159 -254,-121c-61,14 -63,13 -87,-9c-42,-39 -137,-181 -123,-185c6,-2 51,-12 98,-24c96,-23 202,-70 297,-131l63,-41h748c700,0 749,-1 764,-17c10,-12 20,-58 29,-133l13,-115l195,-3c189,-3 196,-2 213,19c15,19 17,51 17,333v313l-24,22c-19,18 -24,35 -28,99c-9,118 -49,193 -119,222c-25,11 -49,55 -49,91c0,3 33,9 74,12c77,6 129,25 140,52c10,26 7,82 -5,108c-17,36 -50,47 -148,47c-84,0 -88,-1 -116,-30c-15,-16 -32,-27 -36,-24c-5,3 -24,54 -43,115c-44,136 -80,205 -126,235l-35,24l-778,2c-428,2 -781,1 -783,-1zM4555,2546c122,-51 54,-172 -129,-228c-125,-39 -232,-24 -272,37c-77,118 227,263 401,191z"></path><path d="M873,3191c0,-22 -14,-45 -51,-86l-52,-57v-112c0,-100 3,-118 25,-162c30,-60 90,-133 119,-144c14,-5 28,-27 40,-61c29,-81 125,-215 223,-312c102,-101 164,-148 248,-188c70,-33 234,-69 314,-69c258,0 563,238 722,562c21,43 40,69 54,72c28,7 83,62 105,106c36,71 52,148 48,236c-2,70 -6,87 -25,106c-13,12 -35,23 -50,24c-27,1 -28,3 -31,57c-2,46 -6,57 -20,57c-10,0 -139,-13 -287,-30c-383,-42 -675,-42 -1075,0c-155,17 -288,30 -295,30c-6,0 -12,-13 -12,-29zM2416,3004c-24,-320 -173,-607 -390,-752c-280,-188 -635,-98 -842,214c-31,46 -72,121 -91,167c-42,98 -83,285 -83,381c0,60 2,68 18,63c9,-3 61,-21 114,-41c166,-61 266,-77 503,-83c306,-7 521,26 690,107c90,43 89,44 81,-56z"></path><path d="M1047,1969c-313,-89 -660,-412 -760,-709c-29,-86 -47,-228 -47,-370v-140l1478,2l1477,3l3,105c2,67 -3,136 -13,190c-9,47 -21,110 -26,140c-6,30 -32,100 -59,155c-171,347 -561,645 -845,645h-60l-99,-257c-54,-142 -122,-316 -149,-388l-51,-130l-13,33c-8,19 -31,99 -52,180l-38,146l64,135c50,104 61,136 51,143c-33,22 -176,88 -191,88c-13,0 -172,-70 -195,-86c-2,-1 26,-65 62,-141l66,-140l-51,-182c-31,-107 -55,-177 -60,-170c-4,7 -72,183 -151,391l-143,378l-65,-1c-36,0 -96,-9 -133,-20zM2617,1505c41,-13 82,-47 83,-71c0,-6 -7,-17 -15,-24c-21,-18 -19,-50 11,-145c22,-72 24,-89 14,-119c-12,-36 -102,-128 -178,-180l-43,-29l-27,25c-15,14 -48,39 -73,56c-59,40 -95,83 -110,130c-9,33 -7,46 20,117c37,94 37,98 10,141c-36,60 -14,85 94,109c67,15 142,12 214,-10z"></path></g></g></g></svg>